<svg xmlns="http://www.w3.org/2000/svg" width="1000" height="800" style="background-Color: black;">
	<!--
		background.svg
		The Background for our Game (Group 1 Project)
		
		(c) 2015 SISP 1305 Group 1.  All rights reserved.
		Note: This is drawn in a text editor so please understand if it looks a bit simple.
	-->
	<g id="gameScene">
		<g id="horizontalRoad">
			<rect x="0" y="350" width="1000" height="100" style="fill: grey;"></rect>
			<rect x="0" y="390" width="100" height="20" style="fill: white;"></rect>
			<rect x="150" y="390" width="100" height="20" style="fill: white;"></rect>
			<rect x="300" y="390" width="100" height="20" style="fill: white;"></rect>
			<!-- Intersection (No Line Here) -->
			<!--<rect x="450" y="390" width="100" height="20" style="fill: white;"></rect>-->
			<rect x="600" y="390" width="100" height="20" style="fill: white;"></rect>
			<rect x="750" y="390" width="100" height="20" style="fill: white;"></rect>
			<rect x="900" y="390" width="100" height="20" style="fill: white;"></rect>
		</g>
		<g id="verticalRoad">
			<rect x="450" y="0" width="100" height="1000" style="fill: grey;"></rect>
			<rect x="490" y="0" width="20" height="100" style="fill: white;"></rect>
			<rect x="490" y="150" width="20" height="100" style="fill: white;"></rect>
			<rect x="490" y="300" width="20" height="100" style="fill: white;"></rect>
			<rect x="490" y="450" width="20" height="100" style="fill: white;"></rect>
			<rect x="490" y="600" width="20" height="100" style="fill: white;"></rect>
			<rect x="490" y="750" width="20" height="100" style="fill: white;"></rect>
		</g>
	</g>
</svg>