<?xml version="1.0"?>
<svg width="1280" height="960" xmlns="http://www.w3.org/2000/svg" xmlns:svg="http://www.w3.org/2000/svg">
 <!-- Created with SVG-edit - http://svg-edit.googlecode.com/ -->
 <defs>
  <filter height="200%" width="200%" y="-50%" x="-50%" id="svg_49_blur">
   <feGaussianBlur stdDeviation="10" in="SourceGraphic"/>
  </filter>
  <filter height="200%" width="200%" y="-50%" x="-50%" id="svg_50_blur">
   <feGaussianBlur stdDeviation="10" in="SourceGraphic"/>
  </filter>
  <filter height="200%" width="200%" y="-50%" x="-50%" id="svg_51_blur">
   <feGaussianBlur stdDeviation="10" in="SourceGraphic"/>
  </filter>
  <filter height="200%" width="200%" y="-50%" x="-50%" id="svg_48_blur">
   <feGaussianBlur stdDeviation="10" in="SourceGraphic"/>
  </filter>
  <filter height="200%" width="200%" y="-50%" x="-50%" id="svg_58_blur">
   <feGaussianBlur stdDeviation="10" in="SourceGraphic"/>
  </filter>
 </defs>
 <g>
  <title>Layer 1</title>
  <rect id="svg_1" height="132" width="588" y="377.333333" x="5.333333" stroke-width="5" stroke="#000000" fill="#000000"/>
  <rect stroke="#000000" id="svg_2" height="132" width="743.999996" y="378.666656" x="532.666672" stroke-width="5" fill="#000000"/>
  <rect stroke="#000000" transform="rotate(-89.68189239501953 584.0828857421874,734.5741577148436) " id="svg_3" height="130.540843" width="447.813208" y="669.303742" x="360.17625" stroke-width="5" fill="#000000"/>
  <rect stroke="#000000" transform="rotate(-90.21064758300781 589.1593017578125,186.00798034667974) " id="svg_4" height="143.79895" width="374.692644" y="114.108481" x="401.813023" stroke-width="5" fill="#000000"/>
  <rect stroke="#000000" id="svg_11" height="22.666667" width="152" y="395.333335" x="55.333354" stroke-linecap="null" stroke-linejoin="null" stroke-dasharray="null" stroke-width="5" fill="#bfbfbf"/>
  <rect id="svg_6" stroke="#000000" height="24.000001" width="142.666671" y="469.99999" x="275.333344" stroke-linecap="null" stroke-linejoin="null" stroke-dasharray="null" stroke-width="5" fill="#bfbfbf"/>
  <rect id="svg_13" stroke="#000000" height="24.000001" width="142.666671" y="395.333326" x="276.666656" stroke-linecap="null" stroke-linejoin="null" stroke-dasharray="null" stroke-width="5" fill="#bfbfbf"/>
  <rect id="svg_14" stroke="#000000" height="24.000001" width="142.666671" y="472.666658" x="58" stroke-linecap="null" stroke-linejoin="null" stroke-dasharray="null" stroke-width="5" fill="#bfbfbf"/>
  <rect transform="rotate(-90.79576110839844 541.3333129882812,116.66665649414061) " id="svg_18" stroke="#000000" height="24.000001" width="142.666671" y="104.666655" x="470.000006" stroke-linecap="null" stroke-linejoin="null" stroke-dasharray="null" stroke-width="5" fill="#bfbfbf"/>
  <rect id="svg_23" transform="rotate(-92.09525299072266 622.6666870117188,656.6666870117188) " stroke="#000000" height="24.000001" width="142.666671" y="644.666685" x="551.333375" stroke-linecap="null" stroke-linejoin="null" stroke-dasharray="null" stroke-width="5" fill="#bfbfbf"/>
  <rect id="svg_24" transform="rotate(-90.79576110839844 629.3333740234376,296.6666870117188) " stroke="#000000" height="24.000001" width="142.666671" y="284.666685" x="558.000036" stroke-linecap="null" stroke-linejoin="null" stroke-dasharray="null" stroke-width="5" fill="#bfbfbf"/>
  <rect stroke="#000000" id="svg_25" transform="rotate(-90.79566955566406 539.3242797851564,300.67611694335943) " height="25.351723" width="142.666671" y="288.00024" x="467.990976" stroke-linecap="null" stroke-linejoin="null" stroke-dasharray="null" stroke-width="5" fill="#bfbfbf"/>
  <rect id="svg_26" transform="rotate(-90.79576110839844 625.3333740234374,126.0000305175781) " stroke="#000000" height="24.000001" width="142.666671" y="114.000029" x="554.000036" stroke-linecap="null" stroke-linejoin="null" stroke-dasharray="null" stroke-width="5" fill="#bfbfbf"/>
  <rect id="svg_27" transform="rotate(-0.0000030349028747878037 806.1017432579628,396.2105417814064) " stroke="#000000" height="24.000001" width="142.666671" y="396.6667" x="758.000016" stroke-linecap="null" stroke-linejoin="null" stroke-dasharray="null" stroke-width="5" fill="#bfbfbf"/>
  <rect id="svg_28" transform="rotate(-91.56221008300781 624.0000000000001,843.3333740234376) " stroke="#000000" height="24.000001" width="142.666671" y="831.333357" x="552.666688" stroke-linecap="null" stroke-linejoin="null" stroke-dasharray="null" stroke-width="5" fill="#bfbfbf"/>
  <rect id="svg_29" transform="rotate(-90.79563903808594 545.3333740234374,850.0000610351561) " stroke="#000000" height="24.000001" width="142.666671" y="838.000044" x="474.000016" stroke-linecap="null" stroke-linejoin="null" stroke-dasharray="null" stroke-width="5" fill="#bfbfbf"/>
  <rect id="svg_30" transform="rotate(-90.71611022949219 541.3333740234375,662.0000610351561) " stroke="#000000" height="24.000001" width="142.666671" y="650.000039" x="470.000016" stroke-linecap="null" stroke-linejoin="null" stroke-dasharray="null" stroke-width="5" fill="#bfbfbf"/>
  <rect id="svg_31" transform="rotate(-0.0000030349028747878037 757.5726928710938,445.3153976913867) " stroke="#000000" height="24.000001" width="142.666671" y="468.666681" x="754.000006" stroke-linecap="null" stroke-linejoin="null" stroke-dasharray="null" stroke-width="5" fill="#bfbfbf"/>
  <rect id="svg_32" transform="rotate(-0.0000030349028747878037 975.3239135742188,356.34066900457873) " stroke="#000000" height="24.000001" width="142.666671" y="390.000016" x="1000.666662" stroke-linecap="null" stroke-linejoin="null" stroke-dasharray="null" stroke-width="5" fill="#bfbfbf"/>
  <rect id="svg_33" transform="rotate(-0.0000030349028747878037 1002.906005859375,442.64874226175044) " stroke="#000000" height="24.000001" width="142.666671" y="466.000013" x="999.333334" stroke-linecap="null" stroke-linejoin="null" stroke-dasharray="null" stroke-width="5" fill="#bfbfbf"/>
  <ellipse ry="68" rx="73.333333" id="svg_34" cy="441.333334" cx="586.666665" stroke-linecap="null" stroke-linejoin="null" stroke-dasharray="null" stroke-width="5" stroke="#ffff56" fill="#000000"/>
  <line stroke="#7f7f00" id="svg_35" y2="377.333333" x2="512" y1="377.333333" x1="9.333318" stroke-linecap="null" stroke-linejoin="null" stroke-dasharray="null" stroke-width="5" fill="none"/>
  <line stroke="#7f7f00" id="svg_36" y2="507.333321" x2="1271.333364" y1="507.333321" x1="663.333347" stroke-linecap="null" stroke-linejoin="null" stroke-dasharray="null" stroke-width="5" fill="none"/>
  <line id="svg_37" stroke="#7f7f00" y2="511.333318" x2="511.333374" y1="511.333318" x1="8.666692" stroke-linecap="null" stroke-linejoin="null" stroke-dasharray="null" stroke-width="5" fill="none"/>
  <line stroke="#7f7f00" transform="rotate(-90.01874542236328 657.2996826171874,185.98887634277347) " id="svg_38" y2="185.988893" x2="839.276426" y1="185.988893" x1="475.322958" stroke-linecap="null" stroke-linejoin="null" stroke-dasharray="null" stroke-width="5" fill="none"/>
  <line stroke="#7f7f00" id="svg_39" y2="377.99999" x2="1269.999992" y1="377.99999" x1="658.000019" stroke-linecap="null" stroke-linejoin="null" stroke-dasharray="null" stroke-width="5" fill="none"/>
  <line stroke="#7f7f00" transform="rotate(-90.21540069580078 517.0902099609375,190.67506408691403) " id="svg_40" y2="190.675084" x2="703.764863" y1="190.675084" x1="330.415572" stroke-linecap="null" stroke-linejoin="null" stroke-dasharray="null" stroke-width="5" fill="none"/>
  <line stroke="#7f7f00" transform="rotate(-89.01231384277344 520.4481201171876,729.3410034179688) " id="svg_41" y2="729.34099" x2="745.785313" y1="729.34099" x1="295.1109" stroke-linecap="null" stroke-linejoin="null" stroke-dasharray="null" stroke-width="5" fill="none"/>
  <line stroke="#7f7f00" transform="rotate(-89.56595611572266 649.5403442382812,733.3399047851564) " id="svg_42" y2="733.339919" x2="873.546213" y1="733.339919" x1="425.534518" stroke-linecap="null" stroke-linejoin="null" stroke-dasharray="null" stroke-width="5" fill="none"/>
  <path stroke="#7f7f00" id="svg_44" d="m152.718338,172.974792c0,22.540024 -6.566391,40.815994 -14.666641,40.815994m14.666641,-40.815994l0,0c0,22.540024 -6.566391,40.815994 -14.666641,40.815994c-8.100174,0 -14.666695,-18.27597 -14.666695,-40.815994m0,0l0,0c0,-22.540741 6.566521,-40.814789 14.666695,-40.814789c8.10025,0 14.666641,18.274048 14.666641,40.814789l0,163.259247c0,22.539215 -6.566391,40.815186 -14.666641,40.815186c-8.100174,0 -14.666695,-18.27597 -14.666695,-40.815186l0,-163.259247z" stroke-linecap="null" stroke-linejoin="null" stroke-dasharray="null" stroke-width="5" fill="none"/>
  <path id="svg_45" stroke="#7f7f00" d="m389.333344,177.703537c0,22.540009 -6.566406,40.815979 -14.666626,40.815979m14.666626,-40.815979l0,0c0,22.540009 -6.566406,40.815979 -14.666626,40.815979c-8.100159,0 -14.666687,-18.27597 -14.666687,-40.815979m0,0l0,0c0,-22.540771 6.566528,-40.814819 14.666687,-40.814819c8.10022,0 14.666626,18.274048 14.666626,40.814819l0,163.259232c0,22.539215 -6.566406,40.815155 -14.666626,40.815155c-8.100159,0 -14.666687,-18.27594 -14.666687,-40.815155l0,-163.259232z" stroke-linecap="null" stroke-linejoin="null" stroke-dasharray="null" stroke-width="5" fill="none"/>
  <path id="svg_46" stroke="#7f7f00" d="m1078.666626,175.036865c0,22.540009 -6.566406,40.815979 -14.666626,40.815979m14.666626,-40.815979l0,0c0,22.540009 -6.566406,40.815979 -14.666626,40.815979c-8.100098,0 -14.666626,-18.27597 -14.666626,-40.815979m0,0l0,0c0,-22.540771 6.566528,-40.814819 14.666626,-40.814819c8.10022,0 14.666626,18.274048 14.666626,40.814819l0,163.259216c0,22.539215 -6.566406,40.815155 -14.666626,40.815155c-8.100098,0 -14.666626,-18.27594 -14.666626,-40.815155l0,-163.259216z" stroke-linecap="null" stroke-linejoin="null" stroke-dasharray="null" stroke-width="5" fill="none"/>
  <path id="svg_47" stroke="#7f7f00" d="m842.666687,181.703537c0,22.540009 -6.566406,40.815979 -14.666626,40.815979m14.666626,-40.815979l0,0c0,22.540009 -6.566406,40.815979 -14.666626,40.815979c-8.100159,0 -14.666687,-18.27597 -14.666687,-40.815979m0,0l0,0c0,-22.540771 6.566528,-40.814819 14.666687,-40.814819c8.10022,0 14.666626,18.274048 14.666626,40.814819l0,163.259232c0,22.539215 -6.566406,40.815155 -14.666626,40.815155c-8.100159,0 -14.666687,-18.27594 -14.666687,-40.815155l0,-163.259232z" stroke-linecap="null" stroke-linejoin="null" stroke-dasharray="null" stroke-width="5" fill="none"/>
  <ellipse filter="url(#svg_48_blur)" stroke="#7f7f00" ry="42.000002" rx="13.333333" id="svg_48" cy="169.999998" cx="137.333333" stroke-linecap="null" stroke-linejoin="null" stroke-dasharray="null" stroke-width="5" fill="#ffff00"/>
  <ellipse filter="url(#svg_49_blur)" id="svg_49" stroke="#7f7f00" ry="42.000002" rx="13.333333" cy="172.666665" cx="1064" stroke-linecap="null" stroke-linejoin="null" stroke-dasharray="null" stroke-width="5" fill="#ffff00"/>
  <ellipse filter="url(#svg_50_blur)" id="svg_50" stroke="#7f7f00" ry="42.000002" rx="13.333333" cy="183.333311" cx="828" stroke-linecap="null" stroke-linejoin="null" stroke-dasharray="null" stroke-width="5" fill="#ffff00"/>
  <ellipse filter="url(#svg_51_blur)" id="svg_51" stroke="#7f7f00" ry="42.000002" rx="13.333333" cy="175.333311" cx="374.666677" stroke-linecap="null" stroke-linejoin="null" stroke-dasharray="null" stroke-width="5" fill="#ffff00"/>
  <rect stroke="#7f7f00" transform="rotate(27.57456398010254 307.9999999999999,419.3333129882813) " id="svg_52" height="46.221907" width="104.71432" y="396.222365" x="255.642844" stroke-linecap="null" stroke-linejoin="null" stroke-dasharray="null" stroke-width="5" fill="#ffff00"/>
  <path d="m277.333344,388c2,0 3.066864,-0.01944 4,0c0.667084,0.013885 1.620605,0.356232 2.133331,0.814209c0.835388,0.746185 1.317322,1.30127 2.260651,1.782227c0.765381,0.390228 1.138031,1.285858 1.878662,1.397552c0.916992,0.138275 2.003479,-0.356598 2.680237,0.119781c0.646332,0.454956 0.380432,1.619568 0.380432,2.552887l0.048004,0.800018l0.428223,0.927338l0.463104,0.463104" id="svg_54" stroke-linecap="null" stroke-linejoin="null" stroke-dasharray="null" stroke-width="5" stroke="#7f7f00" fill="#000000"/>
  <path d="m325.333344,414.666656c2,0 3.067139,-0.029755 4,0c0.753143,0.024017 1.182678,0.854126 1.928864,1.299561c0.853119,0.509277 1.622406,0.481842 2.304016,0.847992c0.898712,0.482788 1.509674,1.165924 2.433777,1.630249c0.627899,0.315491 1.563049,0.656311 2.266663,1.085327c0.759094,0.46283 1.314117,0.947388 1.955566,1.581329c0.572632,0.565948 1.105103,1.16156 1.125336,2.074677l0.364441,0.702209l0.79245,0.407104" id="svg_55" stroke-linecap="null" stroke-linejoin="null" stroke-dasharray="null" stroke-width="5" stroke="#7f7f00" fill="none"/>
  <path d="m265.333344,414.666656c2,0.027802 2.894409,0.437286 3.599976,0.863129c0.763489,0.460785 1.733337,0.467621 2.533356,0.470215c0.927338,0.003021 1.452637,0.631836 2.161987,1.171326c0.628418,0.477966 1.750458,0.110504 2.337555,0.729126c0.593994,0.625854 1.361572,0.996887 2.033783,1.432892c0.793549,0.514709 1.600006,0.660645 2.519104,0.680878l0.738007,0.462006" id="svg_56" stroke-linecap="null" stroke-linejoin="null" stroke-dasharray="null" stroke-width="5" stroke="#7f7f00" fill="none"/>
  <path d="m313.333344,430.666656c2.203552,0 3.129761,0 4.152893,0c0.774445,0 1.764282,-0.126373 2.513763,0.222229c0.740753,0.344543 1.466675,1.244446 2,1.777771c0.666656,0.666687 1.114227,1.324066 2,1.777802c0.747589,0.382935 1.556854,0.666656 2.266663,1.085327c0.887482,0.523468 1.819672,0.593842 2.372223,1.164673c0.652344,0.673889 0.935272,1.425964 1.557556,2.042419c0.619934,0.614136 0.470215,1.663116 0.470215,2.596466l0,0.799988" id="svg_57" stroke-linecap="null" stroke-linejoin="null" stroke-dasharray="null" stroke-width="5" stroke="#7f7f00" fill="none"/>
  <rect filter="url(#svg_58_blur)" id="svg_58" height="9.333333" width="12" y="432" x="357.333333" stroke-linecap="null" stroke-linejoin="null" stroke-dasharray="null" stroke-width="5" stroke="#7f7f00" fill="#ffff00"/>
  <rect id="svg_59" filter="url(#svg_58_blur)" height="9.333333" width="12" y="462.666666" x="345.99999" stroke-linecap="null" stroke-linejoin="null" stroke-dasharray="null" stroke-width="5" stroke="#7f7f00" fill="#ffff00"/>
  <ellipse stroke="#999999" transform="rotate(29.744890213012695 269.1076965332031,388.7281799316406) " ry="1.767374" rx="16" id="svg_60" cy="388.728199" cx="269.107701" stroke-linecap="null" stroke-linejoin="null" stroke-dasharray="null" stroke-width="5" fill="#7f7f7f"/>
 </g>
</svg>